<?xml version="1.0" encoding="utf-8"?>
<svg id="logo" xmlns="http://www.w3.org/2000/svg" viewBox="0 0 1077.2 453.5">
<g id="name" fill="#ffffff" stroke="none">
	<g id="lubika">
		<path d="M926.1,283.6h27.1l-43.1-112.8H874l-43.1,112.8H858l8.6-23.4h50.7L926.1,283.6z M892,188.4l18.7,53.4h-37.7L892,188.4z"/>
		<path d="M738.3,170.5l-25.8,17.6v95.4h25.8V170.5z M813.6,170.7h-29.3L742,226.5l44.7,57.1h29.8l-46-57.1L813.6,170.7z"/>
		<path d="M680.7,170.6l-25.8,17.6v95.3h25.8V170.6z"/>
		<path d="M592.9,283.6c24.8,0,37.3-10,37.3-25.9v-12c0-11-7.4-18.6-19.9-20.8c10.4-3.7,15.2-9,15.2-18.3v-11.7c0-15.2-10.5-24.1-36.3-24.1h-53.8v112.8H592.9z M604.4,254.9c0,8.3-4.9,11-16.6,11h-26.5v-30.8H590c10.3,0,14.4,3.7,14.4,11.4V254.9z M599.7,207.5c0,6.6-3.7,10.5-13.8,10.5h-24.6v-29.7h24.8c9.5,0,13.5,2.9,13.5,9.1L599.7,207.5z"/>
		<path d="M479.8,170.7v78.5c0,11-6.4,17.3-24.6,17.3s-24.6-6.3-24.6-17.3v-78.5h-25.8v80.2c0,17.8,12.1,34.4,50.5,34.4s50.5-16.6,50.5-34.4v-80.2H479.8z"/>
		<path d="M332.5,170.7h-25.8v112.8h82l0-18.8h-56.2V170.7z"/>
	</g>
	<path id="oryginal" d="M953.2,155.6c8.3,0,15.1,6.7,15.1,15.1c0,8.3-6.7,15.1-15.1,15.1c-8.3,0-15.1-6.7-15.1-15.1c0,0,0,0,0,0C938.1,162.4,944.9,155.6,953.2,155.6z M970.8,171.4V170c-0.4-9.8-8.6-17.4-18.3-17c-9.8,0.4-17.4,8.6-17,18.3c0.4,9.8,8.6,17.4,18.3,17C963.1,188,970.5,180.6,970.8,171.4L970.8,171.4z M958,165.4v3.1c0,0.6-0.1,1.1-0.3,1.7c-0.2,0.4-0.6,0.7-1.1,0.9c-0.7,0.2-1.4,0.3-2.1,0.3h-5.3v-8.7h5.3c0.7,0,1.4,0.1,2.1,0.3c0.5,0.1,0.9,0.5,1.1,0.9C957.9,164.3,958,164.9,958,165.4z M959.7,181.4h3.2l-5.5-8c0.7-0.2,1.4-0.6,2-1.1c0.5-0.4,0.9-1,1.1-1.6c0.2-0.7,0.4-1.5,0.3-2.3v-3.1c0-1-0.2-1.9-0.6-2.8c-0.4-0.8-1.1-1.5-2-1.8c-1.2-0.5-2.4-0.7-3.6-0.6h-8v21.3h2.8v-7.7h5.2L959.7,181.4z"/>
</g>
<g id="signet" fill="#ffffff" stroke="none">
	<g id="primary">
		<path d="M190,342.5l84-57.5l-57.5-39.4L190,342.5z"/>
		<path d="M190,112.5L106.1,170v115l83.9,57.5V112.5z"/>
	</g>
</g>
</svg>
